<?xml version="1.0" encoding="utf-8"?>
<!-- Generator: Adobe Illustrator 24.2.3, SVG Export Plug-In . SVG Version: 6.00 Build 0)  -->
<svg version="1.1" id="Layer_1" xmlns="http://www.w3.org/2000/svg" xmlns:xlink="http://www.w3.org/1999/xlink" x="0px" y="0px"
	 viewBox="0 0 100 100" style="enable-background:new 0 0 100 100;" xml:space="preserve">
<style type="text/css">
	.st0{fill:#231F20;}
</style>
<path class="st0" d="M97.2,84.3L70.5,58.9c3.8-6,6.1-13,6.1-20.6C76.5,17.2,59.4,0,38.3,0S0,17.2,0,38.3s17.2,38.3,38.3,38.3
	c6.9,0,13.4-1.9,19-5.1l27.4,26c1.8,1.7,4,2.5,6.3,2.5c2.4,0,4.8-0.9,6.6-2.8C101,93.5,100.8,87.8,97.2,84.3z M14.9,38.3
	c0-12.9,10.5-23.4,23.4-23.4c12.9,0,23.4,10.5,23.4,23.4c0,12.9-10.5,23.4-23.4,23.4C25.4,61.7,14.9,51.2,14.9,38.3z"/>
</svg>
