<?xml version="1.0" encoding="utf-8"?>
<!-- Generator: Adobe Illustrator 24.2.3, SVG Export Plug-In . SVG Version: 6.00 Build 0)  -->
<svg version="1.1" id="Layer_1" xmlns="http://www.w3.org/2000/svg" xmlns:xlink="http://www.w3.org/1999/xlink" x="0px" y="0px"
	 viewBox="0 0 100 100" enable-background="new 0 0 100 100" xml:space="preserve">
<path fill="#3178C6" d="M0,0v100h100V0H0z"/>
<path fill="#FFFFFF" d="M53.2,47.1H38.8v41H27.4v-41H13.1v-9.2h40.1C53.2,37.9,53.2,47.1,53.2,47.1z M90,80.9
	c-1.1,1.9-2.5,3.4-4.3,4.6s-3.9,2-6.3,2.5s-5,0.8-7.6,0.8c-2.8,0-5.4-0.2-7.8-0.7c-2.5-0.5-4.6-1.2-6.5-2.1V74.9
	c2,1.7,4.2,3,6.6,3.8c2.4,0.9,4.8,1.3,7.2,1.3c1.4,0,2.7-0.1,3.7-0.4c1.1-0.3,1.9-0.6,2.7-1.1c0.7-0.5,1.2-1,1.6-1.6
	c0.3-0.6,0.5-1.3,0.5-2c0-1-0.3-1.9-0.8-2.6c-0.6-0.8-1.3-1.5-2.3-2.1c-1-0.7-2.1-1.3-3.4-1.9s-2.8-1.2-4.3-1.9
	c-3.9-1.6-6.8-3.6-8.8-6c-1.9-2.4-2.9-5.2-2.9-8.5c0-2.6,0.5-4.8,1.6-6.7c1-1.9,2.5-3.4,4.3-4.6c1.8-1.2,3.9-2.1,6.3-2.7
	c2.4-0.6,4.9-0.9,7.6-0.9c2.6,0,4.9,0.2,6.9,0.5s3.9,0.8,5.6,1.5v10.4c-0.8-0.6-1.8-1.1-2.7-1.5c-1-0.4-2-0.8-3.1-1.1
	c-1-0.3-2.1-0.5-3.1-0.6s-2-0.2-3-0.2c-1.3,0-2.4,0.1-3.5,0.4c-1,0.2-1.9,0.6-2.7,1c-0.7,0.4-1.3,1-1.7,1.6
	c-0.4,0.6-0.6,1.3-0.6,2.1s0.2,1.6,0.7,2.3c0.4,0.7,1.1,1.3,1.9,1.9c0.8,0.6,1.8,1.2,3,1.7c1.2,0.6,2.5,1.2,4,1.8
	c2,0.8,3.8,1.7,5.4,2.7c1.6,0.9,3,2,4.1,3.2c1.1,1.2,2,2.5,2.6,4.1c0.6,1.5,0.9,3.3,0.9,5.3C91.6,76.7,91.1,79,90,80.9z"/>
</svg>
