<?xml version="1.0" encoding="utf-8"?>
<!-- Generator: Adobe Illustrator 24.2.3, SVG Export Plug-In . SVG Version: 6.00 Build 0)  -->
<svg version="1.1" id="Layer_1" xmlns="http://www.w3.org/2000/svg" xmlns:xlink="http://www.w3.org/1999/xlink" x="0px" y="0px"
	 viewBox="0 0 100 100" enable-background="new 0 0 100 100" xml:space="preserve">
<path fill="#231F20" d="M45,48.3c0.4,1.1,0.7,2.1,1,3H35.4c0.6-1.7,1.3-3.7,1.8-5.8c0.7-2.1,1.3-4.2,1.9-6.2c0.6-1.8,1-3.6,1.4-5.4
	h0.1c0.3,1,0.6,2.1,0.9,3.3c0.3,1.2,0.7,2.4,1.1,3.7s0.8,2.5,1.2,3.8C44.2,46,44.6,47.2,45,48.3z M100,17.7v64.6
	c0,9.8-7.9,17.7-17.7,17.7H17.7C7.9,100,0,92.1,0,82.3V17.7C0,7.9,7.9,0,17.7,0h64.6C92.1,0,100,7.9,100,17.7z M61.7,69.5L46.5,26.5
	c0-0.2-0.2-0.3-0.5-0.3H35.2c0,0-0.1,0-0.1,0c-0.2,0-0.4,0.3-0.3,0.5c0,0.9-0.1,1.8-0.2,2.7c-0.2,0.5-0.3,1-0.4,1.4L20.7,69.4
	c-0.1,0.5,0,0.7,0.5,0.7H29c0.4,0,0.7-0.2,0.8-0.6l3.2-9.8h15.5l3.4,9.9c0.1,0.3,0.4,0.5,0.7,0.5h8.7C61.7,70.1,61.8,69.9,61.7,69.5
	z M75.4,37.4c0-0.4-0.2-0.6-0.5-0.6h-8.2c-0.4,0-0.5,0.2-0.5,0.6v32.1c0,0.4,0.2,0.7,0.6,0.7h8.2c0.4,0,0.5-0.2,0.5-0.7V37.4z
	 M76,28c0-1.4-0.5-2.7-1.4-3.7c-0.9-1-2.2-1.5-3.8-1.5c-1.4,0-2.7,0.5-3.7,1.5c-1,1-1.5,2.3-1.5,3.7c0,1.4,0.5,2.8,1.4,3.8
	c1,1,2.3,1.5,3.7,1.5c1.4,0.1,2.8-0.5,3.8-1.5C75.5,30.8,76,29.5,76,28z"/>
</svg>
