<?xml version="1.0" encoding="utf-8"?>
<!-- Generator: Adobe Illustrator 24.2.3, SVG Export Plug-In . SVG Version: 6.00 Build 0)  -->
<svg version="1.1" id="Layer_1" xmlns="http://www.w3.org/2000/svg" xmlns:xlink="http://www.w3.org/1999/xlink" x="0px" y="0px"
	 viewBox="0 0 88 124" enable-background="new 0 0 88 124" xml:space="preserve">
<path fill="#231F20" d="M7.7,0h5.7v5.6h5.2V0h5.7v17h-5.7v-5.7h-5.2V17H7.7L7.7,0L7.7,0z M31.7,5.6V17h5.7V5.6h5V0H26.7v5.6H31.7
	L31.7,5.6z M44.9,17h5.6V8.6l3.9,6h0.1l3.9-6V17H64V0h-5.9l-3.6,6l-3.6-6h-5.9V17z M66.8,17h13.7v-5.6h-8V0h-5.7V17z M88,24l-8,90
	l-36,10L8,114L0,24H88z M71.6,42.4H44h0H16.3l0.3,3l2.7,30.4H44h0h13.6l-1.3,14.3L44,93.4v0l0,0l-12.3-3.3l-0.8-8.8h-6h-5.1
	l1.5,17.3l22.6,6.3l0.1,0v0l22.6-6.3l0.2-1.9l2.6-29.1l0.3-3h-3H44h0H29.4l-1-11.3H44h0h26.6h0l0.2-2.5l0.5-5.6L71.6,42.4z"/>
</svg>
