<?xml version="1.0" encoding="utf-8"?>
<!-- Generator: Adobe Illustrator 24.2.3, SVG Export Plug-In . SVG Version: 6.00 Build 0)  -->
<svg version="1.1" id="Layer_1" xmlns="http://www.w3.org/2000/svg" xmlns:xlink="http://www.w3.org/1999/xlink" x="0px" y="0px"
	 viewBox="0 0 88 124" enable-background="new 0 0 88 124" xml:space="preserve">
<path fill="#231F20" d="M31.1,11.5V17H17V0h14v6h-8v5.5H31.1z M45.5,6h5.6V0h-14c0,0,0,3,0,6c1.9,1.9,2.9,2.8,5.6,5.5
	c-1.6,0-5.6,0-5.6,0V17h14v-5.5L45.5,6z M65.4,6H71V0h-14c0,0,0,3,0,6c1.9,1.9,2.9,2.8,5.6,5.5c-1.6,0-5.6,0-5.6,0V17h14v-5.5
	L65.4,6z M88,24l-8.3,90.3L44,124l-35.8-9.7L0,24H88z M71.5,42.7H15.9l1.3,10.9h28.2L44,54.2L18.2,64.9l0.9,10.6l0,0l0,0l38.2,0.1
	l-0.9,14.2l-12.6,3.5l-12.1-3l-0.7-8.8H19.9l1.5,17l22.7,6.7l22.6-6.6l2.9-33.7H43.9l0.1,0l26.5-11.3L71.5,42.7z"/>
</svg>
