<?xml version="1.0" encoding="utf-8"?>
<!-- Generator: Adobe Illustrator 24.2.3, SVG Export Plug-In . SVG Version: 6.00 Build 0)  -->
<svg version="1.1" id="Layer_1" xmlns="http://www.w3.org/2000/svg" xmlns:xlink="http://www.w3.org/1999/xlink" x="0px" y="0px"
	 viewBox="0 0 40 40" enable-background="new 0 0 40 40" xml:space="preserve">
<path fill="#231F20" d="M36,0H4C1.8,0,0,1.8,0,4V36c0,2.2,1.8,4,4,4H36c2.2,0,4-1.8,4-4V4C40,1.8,38.2,0,36,0z M12.8,31.8H7.5V14.5
	h5.4V31.8z M10.1,12.4c-1.7,0-2.8-1.2-2.8-2.7C7.3,8.1,8.4,7,10.2,7C11.9,7,13,8.1,13,9.7C13,11.1,11.9,12.4,10.1,12.4z M32.5,31.8
	h-5.4v-9.6c0-2.2-0.8-3.8-2.7-3.8c-1.5,0-2.4,1-2.8,2c-0.1,0.4-0.2,0.8-0.2,1.3v10h-5.4V20c0-2.2-0.1-4-0.1-5.5h4.7l0.2,2.4h0.1
	c0.7-1.1,2.4-2.8,5.3-2.8c3.5,0,6.2,2.4,6.2,7.5V31.8z"/>
</svg>
